<svg viewBox="0 0 64 64" xmlns="http://www.w3.org/2000/svg">
  <defs>
    <linearGradient id="buildingGrad" x1="0%" y1="0%" x2="100%" y2="100%">
      <stop offset="0%" style="stop-color:#2563eb;stop-opacity:1" />
      <stop offset="100%" style="stop-color:#1d4ed8;stop-opacity:1" />
    </linearGradient>
    <linearGradient id="aiGrad" x1="0%" y1="0%" x2="100%" y2="100%">
      <stop offset="0%" style="stop-color:#7c3aed;stop-opacity:1" />
      <stop offset="100%" style="stop-color:#a855f7;stop-opacity:1" />
    </linearGradient>
    <radialGradient id="fusionGlow" cx="50%" cy="50%" r="50%">
      <stop offset="0%" style="stop-color:#10b981;stop-opacity:0.3" />
      <stop offset="100%" style="stop-color:#059669;stop-opacity:0.1" />
    </radialGradient>
  </defs>
  
  <!-- Background with subtle glow -->
  <circle cx="32" cy="32" r="30" fill="url(#fusionGlow)"/>
  
  <!-- Main architectural structure -->
  <g id="buildings">
    <rect x="16" y="28" width="8" height="24" fill="url(#buildingGrad)" rx="1"/>
    <rect x="26" y="20" width="10" height="32" fill="url(#buildingGrad)" rx="1"/>
    <rect x="38" y="32" width="8" height="20" fill="url(#buildingGrad)" rx="1"/>
    
    <!-- Building windows -->
    <rect x="18" y="32" width="2" height="2" fill="white" opacity="0.8"/>
    <rect x="21" y="32" width="2" height="2" fill="white" opacity="0.8"/>
    <rect x="18" y="40" width="2" height="2" fill="white" opacity="0.8"/>
    <rect x="21" y="40" width="2" height="2" fill="white" opacity="0.8"/>
    
    <rect x="28" y="26" width="2" height="2" fill="white" opacity="0.8"/>
    <rect x="32" y="26" width="2" height="2" fill="white" opacity="0.8"/>
    <rect x="28" y="34" width="2" height="2" fill="white" opacity="0.8"/>
    <rect x="32" y="34" width="2" height="2" fill="white" opacity="0.8"/>
    <rect x="28" y="42" width="2" height="2" fill="white" opacity="0.8"/>
    <rect x="32" y="42" width="2" height="2" fill="white" opacity="0.8"/>
    
    <rect x="40" y="38" width="2" height="2" fill="white" opacity="0.8"/>
    <rect x="42" y="38" width="2" height="2" fill="white" opacity="0.8"/>
  </g>
  
  <!-- AI Neural network overlay -->
  <g id="ai-network">
    <!-- Neural nodes -->
    <circle cx="20" cy="16" r="2.5" fill="url(#aiGrad)" opacity="0.9"/>
    <circle cx="32" cy="12" r="2.5" fill="url(#aiGrad)" opacity="0.9"/>
    <circle cx="44" cy="18" r="2.5" fill="url(#aiGrad)" opacity="0.9"/>
    <circle cx="48" cy="40" r="2.5" fill="url(#aiGrad)" opacity="0.9"/>
    <circle cx="12" cy="45" r="2.5" fill="url(#aiGrad)" opacity="0.9"/>
    
    <!-- Neural connections -->
    <path d="M20,16 Q26,10 32,12" stroke="url(#aiGrad)" stroke-width="1.5" fill="none" opacity="0.7"/>
    <path d="M32,12 Q38,14 44,18" stroke="url(#aiGrad)" stroke-width="1.5" fill="none" opacity="0.7"/>
    <path d="M44,18 Q46,28 48,40" stroke="url(#aiGrad)" stroke-width="1.5" fill="none" opacity="0.7"/>
    <path d="M20,16 Q16,30 12,45" stroke="url(#aiGrad)" stroke-width="1.5" fill="none" opacity="0.6"/>
    <path d="M12,45 Q30,42 48,40" stroke="url(#aiGrad)" stroke-width="1.5" fill="none" opacity="0.6"/>
  </g>
  
  <!-- Central fusion point -->
  <circle cx="32" cy="32" r="3" fill="#10b981" opacity="0.8"/>
  <circle cx="32" cy="32" r="1.5" fill="white" opacity="0.9"/>
</svg>